<?xml version="1.0" encoding="UTF-8"?>
<svg width="1600px" height="1751px" viewBox="0 0 1600 1751" version="1.1" xmlns="http://www.w3.org/2000/svg" xmlns:xlink="http://www.w3.org/1999/xlink">
    <!-- Generator: Sketch 53.2 (72643) - https://sketchapp.com -->
    <title>ReactComponentTree</title>
    <desc>Created with Sketch.</desc>
    <g id="ReactComponentTree" stroke="none" stroke-width="1" fill="none" fill-rule="evenodd">
        <ellipse id="Oval" stroke="#979797" stroke-width="3" fill="#F5F5F5" cx="800.5" cy="145.5" rx="224.5" ry="94.5"></ellipse>
        <text id="Kegger" font-family="SFMono-Regular, SF Mono" font-size="40" font-weight="normal" fill="#050000" fill-opacity="0.9">
            <tspan x="726.640625" y="115">Kegger</tspan>
        </text>
        <rect id="Rectangle" stroke="#979797" fill="#D8D8D8" x="706" y="145" width="188" height="65"></rect>
        <text id="Routes" font-family="SFMono-Regular, SF Mono" font-size="30" font-weight="normal" fill="#000000" fill-opacity="0.5">
            <tspan x="744.730469" y="188">Routes</tspan>
        </text>
        <path d="M894,177.5 L1404.5,177" id="Line" stroke="#635C5C" stroke-width="2" fill="#060000" stroke-linecap="square"></path>
        <path id="Line-2" d="M1403.5,319.5 L1403.5,177 L1403.5,176 L1405.5,176 L1405.5,177 L1405.5,319.5 L1411.5,319.5 L1404.5,333.5 L1397.5,319.5 L1403.5,319.5 Z" fill="#635C5C" fill-rule="nonzero"></path>
        <path id="Line-2-Copy" d="M621.410279,333.506698 L621.000021,269.50641 L620.99361,268.506431 L622.993569,268.49361 L622.999979,269.49359 L623.410238,333.493878 L629.410114,333.455417 L622.5,347.5 L615.410402,333.545159 L621.410279,333.506698 Z" fill="#635C5C" fill-rule="nonzero"></path>
        <rect id="Rectangle" stroke="#979797" fill="#D5E8D4" x="1242.5" y="348.5" width="325" height="583"></rect>
        <g id="taps" transform="translate(33.000000, 1040.000000)">
            <rect id="Rectangle-Copy" stroke="#979797" fill="#DAE8FC" x="0.5" y="0.5" width="751" height="583"></rect>
            <g id="Group" transform="translate(64.625000, 95.000000)">
                <path id="Line-2-Copy-2" d="M309.423659,164.98704 L310.375104,98.985586 L310.389518,97.9856899 L312.38931,98.0145179 L312.374896,99.014414 L311.423452,165.015868 L317.422828,165.102353 L310.221759,179 L303.424283,164.900556 L309.423659,164.98704 Z" fill="#080000" fill-rule="nonzero"></path>
                <ellipse id="Oval" stroke="#979797" fill="#F5F5F5" cx="311.375" cy="54" rx="311.375" ry="54"></ellipse>
                <ellipse id="Oval-Copy" stroke="#979797" fill="#F5F5F5" cx="311.375" cy="233" rx="311.375" ry="54"></ellipse>
                <text id="BeerTapList" font-family="SFMono-Regular, SF Mono" font-size="35" font-weight="normal" fill="#000C00">
                    <tspan x="192.006836" y="66">BeerTapList</tspan>
                </text>
                <text id="BeerTaps" font-family="SFMono-Regular, SF Mono" font-size="35" font-weight="normal" fill="#000C00">
                    <tspan x="224.914062" y="246">BeerTaps</tspan>
                </text>
            </g>
            <text id="/adult" font-family="SFMono-Regular, SF Mono" font-size="35" font-weight="normal" fill="#0F12DD">
                <tspan x="311.092773" y="68">/adult</tspan>
            </text>
        </g>
        <g id="taps-copy" transform="translate(817.000000, 1040.000000)">
            <rect id="Rectangle-Copy" stroke="#979797" fill="#DAE8FC" x="0.5" y="0.5" width="751" height="583"></rect>
            <g id="Group" transform="translate(64.625000, 95.000000)">
                <path id="Line-2-Copy-2" d="M309.423659,164.98704 L310.375104,98.985586 L310.389518,97.9856899 L312.38931,98.0145179 L312.374896,99.014414 L311.423452,165.015868 L317.422828,165.102353 L310.221759,179 L303.424283,164.900556 L309.423659,164.98704 Z" fill="#080000" fill-rule="nonzero"></path>
                <ellipse id="Oval" stroke="#979797" fill="#F5F5F5" cx="311.375" cy="54" rx="311.375" ry="54"></ellipse>
                <ellipse id="Oval-Copy" stroke="#979797" fill="#F5F5F5" cx="311.375" cy="233" rx="311.375" ry="54"></ellipse>
                <text id="KombuchaTapList" font-family="SFMono-Regular, SF Mono" font-size="35" font-weight="normal" fill="#000C00">
                    <tspan x="149.463867" y="66">KombuchaTapList</tspan>
                </text>
                <text id="KombuchaTaps" font-family="SFMono-Regular, SF Mono" font-size="35" font-weight="normal" fill="#000C00">
                    <tspan x="181.371094" y="246">KombuchaTaps</tspan>
                </text>
            </g>
            <text id="/minor" font-family="SFMono-Regular, SF Mono" font-size="35" font-weight="normal" fill="#0F12DD">
                <tspan x="311.092773" y="68">/minor</tspan>
            </text>
        </g>
        <text id="/error" font-family="SFMono-Regular, SF Mono" font-size="35" font-weight="normal" fill="#0E860D">
            <tspan x="1340.18555" y="416">/error</tspan>
        </text>
        <rect id="Rectangle" stroke="#979797" fill="#FFE6CC" x="32.5" y="348.5" width="1177" height="583"></rect>
        <g id="userAuth" transform="translate(55.000000, 375.000000)">
            <ellipse id="Oval-Copy-4" stroke="#979797" fill="#F5F5F5" cx="163" cy="305.5" rx="163" ry="44.5"></ellipse>
            <ellipse id="Oval" stroke="#979797" fill="#F5F5F5" cx="970" cy="305.5" rx="163" ry="44.5"></ellipse>
            <ellipse id="Oval-Copy-5" stroke="#979797" fill="#F5F5F5" cx="567" cy="460.5" rx="163" ry="44.5"></ellipse>
            <text id="Register" font-family="SFMono-Regular, SF Mono" font-size="35" font-weight="normal" fill="#000000">
                <tspan x="883.914062" y="308">Register</tspan>
            </text>
            <text id="Login" font-family="SFMono-Regular, SF Mono" font-size="35" font-weight="normal" fill="#000000">
                <tspan x="109.821289" y="308">Login</tspan>
            </text>
            <text id="/splash" font-family="SFMono-Regular, SF Mono" font-size="35" font-weight="normal" fill="#9E5205">
                <tspan x="490.274902" y="33">/splash</tspan>
            </text>
            <ellipse id="Oval" stroke="#979797" fill="#F5F5F5" cx="566" cy="114" rx="231" ry="62"></ellipse>
            <text id="User" font-family="SFMono-Regular, SF Mono" font-size="35" font-weight="normal" fill="#000000">
                <tspan x="523.457031" y="125">User</tspan>
            </text>
            <path d="M567.5,176 L567.5,211.64" id="Line-11" stroke="#635C5C" stroke-width="2" stroke-linecap="square"></path>
            <path d="M162.5,211.75 L970,211.75" id="Line-12" stroke="#635C5C" stroke-width="2" stroke-linecap="square"></path>
            <path id="Line-13" d="M969.5,246.642857 L969.5,211.357143 L969.5,210.357143 L971.5,210.357143 L971.5,211.357143 L971.5,246.642857 L977.5,246.642857 L970.5,260.642857 L963.5,246.642857 L969.5,246.642857 Z" fill="#635C5C" fill-rule="nonzero"></path>
            <path id="Line-13-Copy" d="M161.5,246.642857 L161.5,211.357143 L161.5,210.357143 L163.5,210.357143 L163.5,211.357143 L163.5,246.642857 L169.5,246.642857 L162.5,260.642857 L155.5,246.642857 L161.5,246.642857 Z" fill="#635C5C" fill-rule="nonzero"></path>
            <path id="Line-14" d="M566.5,402.5 L566.5,211.75 L566.5,210.75 L568.5,210.75 L568.5,211.75 L568.5,402.5 L574.5,402.5 L567.5,416.5 L560.5,402.5 L566.5,402.5 Z" fill="#635C5C" fill-rule="nonzero"></path>
        </g>
        <text id="AgeConfirmation" font-family="SFMono-Regular, SF Mono" font-size="30" font-weight="normal" fill="#000000">
            <tspan x="482.413086" y="846">AgeConfirmation</tspan>
        </text>
        <ellipse id="Oval-Copy-2" stroke="#979797" fill="#F5F5F5" cx="1405" cy="497" rx="135" ry="54"></ellipse>
        <text id="Error404" font-family="SFMono-Regular, SF Mono" font-size="35" font-weight="normal" fill="#000C00">
            <tspan x="1318.91406" y="509">Error404</tspan>
        </text>
        <path d="M1025,125 L1202.5,125" id="Line-4" stroke="#635C5C" stroke-width="2" stroke-linecap="square"></path>
        <path d="M1203,125 L1203,77" id="Line-5" stroke="#635C5C" stroke-width="2" stroke-linecap="square"></path>
        <path id="Line-6" d="M1304,78 L1203,78 L1202,78 L1202,76 L1203,76 L1304,76 L1304,70 L1318,77 L1304,84 L1304,78 Z" fill="#635C5C" fill-rule="nonzero"></path>
        <ellipse id="Oval" stroke="#979797" fill="#F5F5F5" cx="1405" cy="77" rx="87" ry="34"></ellipse>
        <ellipse id="Oval-Copy-3" stroke="#979797" fill="#F5F5F5" cx="1522.5" cy="191" rx="57.5" ry="24"></ellipse>
        <path id="Line-2-Copy-3" d="M1192.4615,1024.98979 L1193.1533,962.488932 L1193.16437,961.488993 L1195.16425,961.511129 L1195.15318,962.511068 L1194.46137,1025.01193 L1200.46101,1025.07833 L1193.30648,1039 L1186.46186,1024.92338 L1192.4615,1024.98979 Z" fill="#080000" fill-rule="nonzero"></path>
        <path id="Line-2-Copy-4" d="M410.461496,1024.98979 L411.153302,962.488932 L411.16437,961.488993 L413.164248,961.511129 L413.153179,962.511068 L412.461373,1025.01193 L418.461006,1025.07833 L411.306481,1039 L404.461863,1024.92338 L410.461496,1024.98979 Z" fill="#080000" fill-rule="nonzero"></path>
        <text id="Header" font-family="SFMono-Regular, SF Mono" font-size="30" font-weight="normal" fill="#000000">
            <tspan x="1349.73047" y="88">Header</tspan>
        </text>
        <text id="img" font-family="SFMono-Regular, SF Mono" font-size="20" font-weight="normal" fill="#000000">
            <tspan x="1504.91016" y="197">img</tspan>
        </text>
        <path d="M1492,77 L1522.5,77" id="Line-7" stroke="#635C5C" stroke-width="2" stroke-linecap="square"></path>
        <path id="Line-8" d="M1521.5,153.5 L1521.5,77 L1521.5,76 L1523.5,76 L1523.5,77 L1523.5,153.5 L1529.5,153.5 L1522.5,167.5 L1515.5,153.5 L1521.5,153.5 Z" fill="#635C5C" fill-rule="nonzero"></path>
        <path d="M800.5,210 L800.5,269.25" id="Line-9" stroke="#635C5C" stroke-width="2" stroke-linecap="square"></path>
        <path d="M800.5,269.5 L621.5,269.5" id="Line-10" stroke="#635C5C" stroke-width="2" stroke-linecap="square"></path>
        <path id="Line-16" d="M445.857141,830.574021 L217.583215,725.909005 L216.67421,725.492221 L217.507779,723.67421 L218.416785,724.090995 L446.690711,828.756011 L449.191418,823.301979 L459,835.5 L443.356434,836.028053 L445.857141,830.574021 Z" fill="#635C5C" fill-rule="nonzero"></path>
        <path id="Line-15" d="M797.298636,828.736602 L1024.58178,724.091653 L1025.49013,723.673435 L1026.32656,725.490129 L1025.41822,725.908347 L798.135072,830.553295 L800.64438,836.003375 L785,835.5 L794.789328,823.286522 L797.298636,828.736602 Z" fill="#635C5C" fill-rule="nonzero"></path>
        <path d="M622,880 L622.5,962.5" id="Line-17" stroke="#635C5C" stroke-width="2" stroke-linecap="square"></path>
        <path d="M411.306481,962.5 L1194.15324,962.5" id="Line-18" stroke="#635C5C" stroke-width="2" stroke-linecap="square"></path>
    </g>
</svg>